<svg version="1.1" id="Layer_1" xmlns="http://www.w3.org/2000/svg" x="0" y="0" viewBox="0 0 256 256" style="enable-background:new 0 0 256 256" xml:space="preserve"><style>.st0{fill:#382b73}.st2{fill:#1caee4}.st3{fill:#009add}.st4{fill:#fff}.st5{fill:#d1d3d4}.st7{fill:#e43d91}</style><switch><g><circle class="st0" cx="128" cy="128" r="120"/><circle cx="128" cy="128" r="102.5" style="fill:#473080"/><path class="st0" d="M182.892 116.304H77.707l97.585-39.807a1.8 1.8 0 0 0 .987-2.347l-5.043-12.362a1.8 1.8 0 0 0-2.347-.987L65.791 102.856a1.8 1.8 0 0 0-.987 2.348l5.032 12.337a1.782 1.782 0 0 0-.091.564v13.351c0 .994.806 1.801 1.801 1.801h3.451v58.561a3.602 3.602 0 0 0 3.602 3.602h98.14a3.602 3.602 0 0 0 3.602-3.602v-58.561h2.551a1.8 1.8 0 0 0 1.801-1.801v-13.351a1.8 1.8 0 0 0-1.801-1.801z"/><g><path class="st2" d="M176.74 188.419H78.6a3.602 3.602 0 0 1-3.602-3.602v-71.912a3.602 3.602 0 0 1 3.602-3.602h98.14a3.602 3.602 0 0 1 3.602 3.602v71.912a3.602 3.602 0 0 1-3.602 3.602z"/><path class="st2" d="M175.292 69.497 72.194 111.553a1.8 1.8 0 0 1-2.348-.987l-5.043-12.362a1.8 1.8 0 0 1 .987-2.347L168.889 53.8a1.8 1.8 0 0 1 2.347.987l5.043 12.362a1.8 1.8 0 0 1-.987 2.348z"/><path class="st3" d="M173.535 65.19 70.437 107.246a1.8 1.8 0 0 1-2.347-.987l1.757 4.307a1.8 1.8 0 0 0 2.348.987l103.098-42.056a1.8 1.8 0 0 0 .987-2.348l-1.757-4.307a1.802 1.802 0 0 1-.988 2.348z"/><path class="st4" d="m99.288 100.501-10.282 4.194-12.238-13.316 10.282-4.194zM121.242 91.545 110.96 95.74 98.721 82.423l10.282-4.194zM143.195 82.59l-10.282 4.194-12.238-13.316 10.282-4.194zM165.149 73.635l-10.282 4.194-12.239-13.316 10.282-4.194z"/><path class="st5" d="m154.867 77.829 10.282-4.194-3.358-3.654-10.283 4.194zM132.913 86.784l10.282-4.194-3.358-3.654-10.282 4.194zM110.96 95.74l10.282-4.195-3.359-3.654-10.282 4.195zM89.006 104.695l10.282-4.194-3.358-3.654-10.282 4.194z"/><g><path class="st2" d="M182.892 126.256H71.546a1.8 1.8 0 0 1-1.801-1.801v-13.351c0-.994.806-1.801 1.801-1.801h111.346a1.8 1.8 0 0 1 1.801 1.801v13.351a1.8 1.8 0 0 1-1.801 1.801z"/><path class="st3" d="M182.892 121.605H71.546a1.8 1.8 0 0 1-1.801-1.801v4.652a1.8 1.8 0 0 0 1.801 1.801h111.346a1.8 1.8 0 0 0 1.801-1.801v-4.652c0 .994-.806 1.801-1.801 1.801z"/><path class="st4" d="M100.808 126.256H89.704l-6.303-16.952h11.105zM124.518 126.256h-11.105l-6.302-16.952h11.104zM148.228 126.256h-11.105l-6.302-16.952h11.104zM171.938 126.256h-11.105l-6.303-16.952h11.105z"/><path class="st5" d="M160.833 126.256h11.105l-1.73-4.651h-11.104zM137.123 126.256h11.105l-1.73-4.651h-11.104zM113.413 126.256h11.105l-1.729-4.651h-11.105zM89.704 126.256h11.104l-1.729-4.651H87.974z"/></g><path d="M166.676 178.028H88.662a1.801 1.801 0 0 1-1.801-1.801v-38.791a1.8 1.8 0 0 1 1.801-1.801h78.014c.994 0 1.801.806 1.801 1.801v38.791a1.8 1.8 0 0 1-1.801 1.801z" style="fill:#fede3a"/><g><path class="st7" d="M113.375 158.322c0 8.077 6.548 14.625 14.625 14.625s14.625-6.548 14.625-14.625v-2.686c0-8.077-6.548-14.625-14.625-14.625s-14.625 6.548-14.625 14.625v2.686z"/><circle cx="128" cy="155.636" r="14.625" style="fill:#ef5a9d"/><g><path class="st7" d="M123.858 162.396v-9.548c0-1.376 1.558-2.173 2.674-1.369l6.623 4.774a1.688 1.688 0 0 1 0 2.738l-6.623 4.774c-1.116.804-2.674.006-2.674-1.369z"/><path class="st4" d="M123.858 160.138v-9.548c0-1.376 1.558-2.173 2.674-1.369l6.623 4.774a1.688 1.688 0 0 1 0 2.738l-6.623 4.774c-1.116.804-2.674.007-2.674-1.369z"/><path class="st5" d="m133.155 155.427-6.623 4.774c-1.116.804-2.674.007-2.674-1.369v1.305c0 1.376 1.558 2.173 2.674 1.369l6.623-4.774c.669-.482.85-1.33.561-2.022a1.65 1.65 0 0 1-.561.717z"/></g></g></g></g></switch></svg>